<mxfile host="app.diagrams.net" modified="2023-11-20T07:28:14.857Z" agent="Mozilla/5.0 (Macintosh; Intel Mac OS X 10_15_7) AppleWebKit/537.36 (KHTML, like Gecko) Chrome/112.0.0.0 Safari/537.36 Edg/112.0.1722.48" etag="pzku_-G41unQAMceLm_e" version="21.6.3" type="github">
  <diagram name="Page-1" id="AL29XffXqip_YUcMyfbM">
    <mxGraphModel dx="897" dy="562" grid="1" gridSize="10" guides="1" tooltips="1" connect="1" arrows="1" fold="1" page="1" pageScale="1" pageWidth="827" pageHeight="1169" math="0" shadow="0">
      <root>
        <mxCell id="0" />
        <mxCell id="1" parent="0" />
        <mxCell id="RcnW0wwoFUMvdB73wZT2-3" value="" style="edgeStyle=orthogonalEdgeStyle;rounded=0;orthogonalLoop=1;jettySize=auto;html=1;" edge="1" parent="1" source="RcnW0wwoFUMvdB73wZT2-1" target="RcnW0wwoFUMvdB73wZT2-2">
          <mxGeometry relative="1" as="geometry" />
        </mxCell>
        <mxCell id="RcnW0wwoFUMvdB73wZT2-1" value="UserOperation" style="rounded=0;whiteSpace=wrap;html=1;" vertex="1" parent="1">
          <mxGeometry x="160" y="250" width="120" height="60" as="geometry" />
        </mxCell>
        <mxCell id="RcnW0wwoFUMvdB73wZT2-5" value="" style="edgeStyle=orthogonalEdgeStyle;rounded=0;orthogonalLoop=1;jettySize=auto;html=1;" edge="1" parent="1" source="RcnW0wwoFUMvdB73wZT2-2" target="RcnW0wwoFUMvdB73wZT2-4">
          <mxGeometry relative="1" as="geometry" />
        </mxCell>
        <mxCell id="RcnW0wwoFUMvdB73wZT2-2" value="Bundlers" style="rounded=0;whiteSpace=wrap;html=1;" vertex="1" parent="1">
          <mxGeometry x="360" y="250" width="120" height="60" as="geometry" />
        </mxCell>
        <mxCell id="RcnW0wwoFUMvdB73wZT2-10" value="" style="edgeStyle=orthogonalEdgeStyle;rounded=0;orthogonalLoop=1;jettySize=auto;html=1;" edge="1" parent="1" source="RcnW0wwoFUMvdB73wZT2-4" target="RcnW0wwoFUMvdB73wZT2-9">
          <mxGeometry relative="1" as="geometry" />
        </mxCell>
        <mxCell id="RcnW0wwoFUMvdB73wZT2-4" value="EntryPoint" style="rounded=0;whiteSpace=wrap;html=1;" vertex="1" parent="1">
          <mxGeometry x="360" y="390" width="120" height="60" as="geometry" />
        </mxCell>
        <mxCell id="RcnW0wwoFUMvdB73wZT2-6" value="将交易发送到区块链上的 EntryPoint 合约" style="text;html=1;align=center;verticalAlign=middle;resizable=0;points=[];autosize=1;strokeColor=none;fillColor=none;" vertex="1" parent="1">
          <mxGeometry x="430" y="330" width="240" height="30" as="geometry" />
        </mxCell>
        <mxCell id="RcnW0wwoFUMvdB73wZT2-7" value="是一种数据结构，描述代表用户发送的事务" style="text;html=1;align=center;verticalAlign=middle;resizable=0;points=[];autosize=1;strokeColor=none;fillColor=none;" vertex="1" parent="1">
          <mxGeometry x="85" y="308" width="250" height="30" as="geometry" />
        </mxCell>
        <mxCell id="RcnW0wwoFUMvdB73wZT2-8" value="EntryPoint 合约验证交易的每个用户操作，&lt;br&gt;从钱包合约或付款主管中找到并将 callData 传递给钱包合约" style="text;html=1;align=center;verticalAlign=middle;resizable=0;points=[];autosize=1;strokeColor=none;fillColor=none;" vertex="1" parent="1">
          <mxGeometry x="500" y="400" width="340" height="40" as="geometry" />
        </mxCell>
        <mxCell id="RcnW0wwoFUMvdB73wZT2-9" value="Wallet Contracts&lt;span style=&quot;color: rgb(56, 66, 72); font-family: system-ui, -apple-system, &amp;quot;system-ui&amp;quot;, &amp;quot;Segoe UI&amp;quot;, Roboto, Oxygen, Ubuntu, Cantarell, &amp;quot;Fira Sans&amp;quot;, &amp;quot;Droid Sans&amp;quot;, &amp;quot;Helvetica Neue&amp;quot;, sans-serif; font-size: 15px; text-align: left; background-color: rgb(255, 255, 255);&quot;&gt;&amp;nbsp;&lt;/span&gt;" style="rounded=0;whiteSpace=wrap;html=1;" vertex="1" parent="1">
          <mxGeometry x="360" y="530" width="120" height="60" as="geometry" />
        </mxCell>
        <mxCell id="RcnW0wwoFUMvdB73wZT2-11" value="Paymasters" style="whiteSpace=wrap;html=1;" vertex="1" parent="1">
          <mxGeometry x="500" y="530" width="120" height="60" as="geometry" />
        </mxCell>
      </root>
    </mxGraphModel>
  </diagram>
</mxfile>
